<svg width="290" height="150" viewBox="0 0 290 150" fill="none" xmlns="http://www.w3.org/2000/svg">
<rect width="290" height="150" fill="white"/>
<path d="M82.3222 68.32V74.17C80.9356 73.5633 79.8089 73.1517 78.9422 72.935C78.0756 72.7183 77.1439 72.61 76.1472 72.61C72.8106 72.61 69.9939 73.65 67.6972 75.73C65.4006 77.81 64.2522 80.41 64.2522 83.53C64.2522 86.4333 65.2922 88.925 67.3722 91.005C69.4522 93.085 71.9656 94.125 74.9122 94.125C77.9889 94.125 80.5672 92.9983 82.6472 90.745C84.7706 88.4483 85.8322 85.61 85.8322 82.23V52.135H91.4222V82.295C91.4222 87.5383 89.9706 91.72 87.0672 94.84C84.1639 97.96 80.2422 99.52 75.3022 99.52C70.4056 99.52 66.4189 98.0033 63.3422 94.97C60.2656 91.9367 58.7272 88.0367 58.7272 83.27C58.7272 78.46 60.2872 74.56 63.4072 71.57C66.5706 68.5367 70.6222 67.02 75.5622 67.02C76.7322 67.02 77.7506 67.1067 78.6172 67.28C79.4839 67.4533 80.7189 67.8 82.3222 68.32ZM97.6841 83.01C97.6841 78.46 99.2441 74.6033 102.364 71.44C105.484 68.2767 109.319 66.695 113.869 66.695C118.462 66.695 122.341 68.255 125.504 71.375C128.667 74.495 130.249 78.33 130.249 82.88C130.249 87.43 128.624 91.3517 125.374 94.645C122.167 97.895 118.332 99.52 113.869 99.52C109.406 99.52 105.592 97.895 102.429 94.645C99.2657 91.395 97.6841 87.5167 97.6841 83.01ZM113.934 71.96C111.117 71.96 108.669 73.065 106.589 75.275C104.509 77.485 103.469 80.1067 103.469 83.14C103.469 86.0867 104.509 88.6433 106.589 90.81C108.669 92.9767 111.117 94.06 113.934 94.06C116.837 94.06 119.307 92.9983 121.344 90.875C123.424 88.7083 124.464 86.1083 124.464 83.075C124.464 80.085 123.424 77.485 121.344 75.275C119.264 73.065 116.794 71.96 113.934 71.96ZM152.604 67.02V72.61C149.181 72.61 146.364 73.6067 144.154 75.6C141.944 77.5933 140.839 80.1283 140.839 83.205C140.839 86.325 141.944 88.9467 144.154 91.07C146.407 93.15 149.224 94.19 152.604 94.19V99.52H152.019C147.252 99.52 143.222 97.96 139.929 94.84C136.679 91.72 135.054 87.9067 135.054 83.4C135.054 79.11 136.679 75.2967 139.929 71.96C143.179 68.6233 146.927 66.955 151.174 66.955L152.604 67.02Z" fill="#DE2323"/>
<path d="M158.808 99V52.135H164.463L164.528 79.89L166.023 79.955C169.143 79.955 172.003 78.9583 174.603 76.965C177.203 74.9717 178.763 72.5667 179.283 69.75L179.673 67.605H185.523L185.003 70.4C184.223 75.7733 181.233 79.76 176.033 82.36C176.683 82.7067 177.29 83.0533 177.853 83.4C178.46 83.7033 178.893 83.9633 179.153 84.18C181.017 85.74 182.533 87.6467 183.703 89.9C184.873 92.1533 185.458 94.4933 185.458 96.92L185.653 99H179.738L179.478 96.465C179.045 92.825 177.593 90.0083 175.123 88.015C172.653 85.9783 169.403 84.96 165.373 84.96L164.463 85.025V99H158.808ZM208.718 63.662L198.461 71.813L196.472 69.512L204.428 63.116C203.232 61.738 201.802 61.049 200.138 61.049C198.344 61.049 196.745 61.725 195.341 63.077C193.963 64.403 193.274 65.937 193.274 67.679C193.274 69.395 193.937 70.916 195.263 72.242C196.589 73.568 198.097 74.231 199.787 74.231C201.945 74.231 203.843 73.1 205.481 70.838L208.211 72.554C207.509 73.698 206.833 74.556 206.183 75.128C204.415 76.584 202.283 77.312 199.787 77.312C196.927 77.312 194.6 76.415 192.806 74.621C191.012 72.827 190.115 70.513 190.115 67.679C190.115 64.819 191.025 62.453 192.845 60.581C194.665 58.709 196.966 57.773 199.748 57.773C201.802 57.773 203.674 58.332 205.364 59.45C206.118 59.944 206.716 60.477 207.158 61.049C207.6 61.595 208.12 62.466 208.718 63.662ZM225.514 58.592V62.102C224.682 61.738 224.006 61.491 223.486 61.361C222.966 61.231 222.407 61.166 221.809 61.166C219.807 61.166 218.117 61.79 216.739 63.038C215.361 64.286 214.672 65.846 214.672 67.718C214.672 69.46 215.296 70.955 216.544 72.203C217.792 73.451 219.3 74.075 221.068 74.075C222.914 74.075 224.461 73.399 225.709 72.047C226.983 70.669 227.62 68.966 227.62 66.938V48.881H230.974V66.977C230.974 70.123 230.103 72.632 228.361 74.504C226.619 76.376 224.266 77.312 221.302 77.312C218.364 77.312 215.972 76.402 214.126 74.582C212.28 72.762 211.357 70.422 211.357 67.562C211.357 64.676 212.293 62.336 214.165 60.542C216.063 58.722 218.494 57.812 221.458 57.812C222.16 57.812 222.771 57.864 223.291 57.968C223.811 58.072 224.552 58.28 225.514 58.592Z" fill="#1E1E1E"/>
</svg>
